<svg width="199" height="26" viewBox="0 0 199 26" fill="none" xmlns="http://www.w3.org/2000/svg">
<g clip-path="url(#clip0_3636_13407)">
<path d="M89.7004 12.8L81.9004 25.9H85.2004L89.7004 18.2L90.6004 19.8L87.0004 25.8H90.2004L92.2004 22.4L93.2004 24.1L92.1004 25.9H95.4004L96.4004 24.2L91.3004 15.5L89.7004 12.8Z" fill="white"/>
<path d="M94.6996 9.6L97.1996 13.9L98.7996 11.1L96.2996 6.8L97.2996 5.3L99.6996 9.5L101.3 6.8L97.2996 0L90.5996 11.3L99.0996 25.9H102.3L93.7996 11.2L94.6996 9.6Z" fill="white"/>
<path d="M109.401 25.9H112.801L107.901 17.7H106.301L106.501 15.5L102.301 8.5L98.2012 15.5L104.301 25.9H107.601L105.001 21.5L105.901 19.9L109.401 25.9ZM103.901 19.8L101.401 15.6L102.301 14L104.801 18.2L103.901 19.8Z" fill="white"/>
<path d="M10.3 18.3V21.4H0V9.29999H10.1V12.4H4.1V13.8H9.3V16.7H4.1V18.3H10.3Z" fill="white"/>
<path d="M23 21.4V15.9L20.3 20.3H18.5L15.8 16.1V21.4H12V9.29999H15.4L19.4 15.7L23.3 9.29999H26.7V21.4H23Z" fill="white"/>
<path d="M31.7008 20.8C30.6008 20.3 29.8008 19.5 29.2008 18.5C28.6008 17.5 28.3008 16.5 28.3008 15.2C28.3008 14 28.6008 12.9 29.2008 11.9C29.8008 10.9 30.6008 10.2 31.7008 9.59999C32.8008 9.09999 34.0008 8.79999 35.3008 8.79999C36.6008 8.79999 37.8008 9.09999 38.9008 9.59999C40.0008 10.1 40.8008 10.9 41.4008 11.9C42.0008 12.9 42.3008 13.9 42.3008 15.2C42.3008 16.4 42.0008 17.5 41.4008 18.5C40.8008 19.5 40.0008 20.2 38.9008 20.8C37.8008 21.3 36.6008 21.6 35.3008 21.6C33.9008 21.7 32.7008 21.4 31.7008 20.8ZM36.7008 18C37.1008 17.8 37.5008 17.4 37.7008 16.9C37.9008 16.4 38.1008 15.9 38.1008 15.3C38.1008 14.7 38.0008 14.2 37.7008 13.7C37.5008 13.2 37.1008 12.9 36.7008 12.6C36.3008 12.4 35.8008 12.2 35.3008 12.2C34.8008 12.2 34.3008 12.3 33.9008 12.6C33.5008 12.8 33.1008 13.2 32.9008 13.7C32.7008 14.2 32.5008 14.7 32.5008 15.3C32.5008 15.9 32.6008 16.4 32.9008 16.9C33.1008 17.4 33.5008 17.7 33.9008 18C34.3008 18.2 34.8008 18.4 35.3008 18.4C35.8008 18.3 36.3008 18.2 36.7008 18Z" fill="white"/>
<path d="M49.1008 18.3H48.0008V21.3H43.8008V9.29999H49.8008C50.9008 9.29999 51.9008 9.49999 52.8008 9.89999C53.6008 10.3 54.3008 10.8 54.8008 11.5C55.3008 12.2 55.5008 13 55.5008 13.9C55.5008 14.8 55.3008 15.5 54.9008 16.2C54.5008 16.8 53.9008 17.4 53.2008 17.7L55.8008 21.4H51.2008L49.1008 18.3ZM50.7008 12.8C50.4008 12.6 50.0008 12.4 49.4008 12.4H47.9008V15.2H49.4008C50.0008 15.2 50.4008 15.1 50.7008 14.8C51.0008 14.6 51.1008 14.2 51.1008 13.8C51.2008 13.4 51.0008 13 50.7008 12.8Z" fill="white"/>
<path d="M64.0992 17V21.4H59.8992V17L55.1992 9.29999H59.5992L62.0992 13.5L64.5992 9.29999H68.5992L64.0992 17Z" fill="white"/>
<path d="M76.8992 19.3H72.1992L71.3992 21.4H67.1992L72.5992 9.29999H76.6992L82.0992 21.4H77.7992L76.8992 19.3ZM75.7992 16.3L74.5992 13.3L73.3992 16.3H75.7992Z" fill="white"/>
<path d="M118.7 12.3V14.4H123.9V17.5H118.7V21.4H114.5V9.29999H124.6V12.4H118.7V12.3Z" fill="white"/>
<path d="M125.9 9.29999H130.1V21.4H125.9V9.29999Z" fill="white"/>
<path d="M144.3 9.29999V21.4H140.9L136.2 15.9V21.4H132.1V9.29999H135.5L140.2 14.8V9.29999H144.3Z" fill="white"/>
<path d="M154.8 19.3H150.1L149.2 21.4H145L150.4 9.29999H154.5L159.9 21.4H155.6L154.8 19.3ZM153.6 16.3L152.4 13.3L151.2 16.3H153.6Z" fill="white"/>
<path d="M172.8 9.29999V21.4H169.4L164.7 15.9V21.4H160.6V9.29999H164L168.7 14.8V9.29999H172.8Z" fill="white"/>
<path d="M177.599 20.8C176.599 20.3 175.699 19.5 175.099 18.6C174.499 17.6 174.199 16.5 174.199 15.3C174.199 14.1 174.499 13 175.099 12C175.699 11 176.499 10.3 177.599 9.8C178.599 9.3 179.799 9 181.099 9C182.299 9 183.399 9.2 184.299 9.6C185.199 10 185.999 10.6 186.599 11.4L183.999 13.7C183.199 12.8 182.299 12.3 181.299 12.3C180.399 12.3 179.699 12.6 179.199 13.1C178.699 13.6 178.399 14.4 178.399 15.3C178.399 16.2 178.699 17 179.199 17.5C179.699 18 180.399 18.3 181.299 18.3C182.299 18.3 183.199 17.8 183.999 16.9L186.599 19.2C185.999 20 185.199 20.6 184.299 21C183.399 21.4 182.299 21.6 181.099 21.6C179.899 21.7 178.699 21.4 177.599 20.8Z" fill="white"/>
<path d="M198.2 18.3V21.4H187.9V9.29999H198V12.4H192V13.8H197.2V16.7H192V18.3H198.2Z" fill="white"/>
</g>
<defs>
<clipPath id="clip0_3636_13407">
<rect width="198.2" height="25.9" fill="white"/>
</clipPath>
</defs>
</svg>
